<?xml version="1.0" encoding="UTF-8" standalone="no"?>
<!DOCTYPE svg PUBLIC "-//W3C//DTD SVG 1.1//EN"
 "http://www.w3.org/Graphics/SVG/1.1/DTD/svg11.dtd">
<!-- Generated by graphviz version 2.40.1 (20161225.0304)
 -->
<!-- Title: G Pages: 1 -->
<svg width="1091pt" height="339pt"
 viewBox="0.00 0.00 1091.10 339.00" xmlns="http://www.w3.org/2000/svg" xmlns:xlink="http://www.w3.org/1999/xlink">
<g id="graph0" class="graph" transform="scale(1 1) rotate(0) translate(4 335)">
<title>G</title>
<polygon fill="#ffffff" stroke="transparent" points="-4,4 -4,-335 1087.102,-335 1087.102,4 -4,4"/>
<text text-anchor="middle" x="541.551" y="-6.8" font-family="Times,serif" font-size="14.00" fill="#000000">Main structure of Elmag</text>
<!-- A0 -->
<g id="node1" class="node">
<title>A0</title>
<polygon fill="none" stroke="#000000" points="573.4707,-294.5 573.4707,-330.5 627.4707,-330.5 627.4707,-294.5 573.4707,-294.5"/>
<text text-anchor="middle" x="600.2432" y="-308.3" font-family="Times,serif" font-size="14.00" fill="#000000">Elmag</text>
</g>
<!-- A1 -->
<g id="node2" class="node">
<title>A1</title>
<polygon fill="none" stroke="#000000" points="75.3931,-221.5 75.3931,-257.5 155.5483,-257.5 155.5483,-221.5 75.3931,-221.5"/>
<text text-anchor="middle" x="115.4707" y="-235.3" font-family="Times,serif" font-size="14.00" fill="#000000">module.f90</text>
</g>
<!-- A0&#45;&gt;A1 -->
<g id="edge1" class="edge">
<title>A0&#45;&gt;A1</title>
<path fill="none" stroke="#ffff00" d="M573.3558,-308.4188C495.0525,-296.6329 267.6943,-262.412 165.8457,-247.0822"/>
<polygon fill="#ffff00" stroke="#ffff00" points="166.217,-243.5988 155.8074,-245.5713 165.1751,-250.5208 166.217,-243.5988"/>
</g>
<!-- A2 -->
<g id="node4" class="node">
<title>A2</title>
<polygon fill="none" stroke="#000000" points="247.2861,-221.5 247.2861,-257.5 319.6553,-257.5 319.6553,-221.5 247.2861,-221.5"/>
<text text-anchor="middle" x="283.4707" y="-235.3" font-family="Times,serif" font-size="14.00" fill="#000000">elmag.f90</text>
</g>
<!-- A0&#45;&gt;A2 -->
<g id="edge2" class="edge">
<title>A0&#45;&gt;A2</title>
<path fill="none" stroke="#ffff00" d="M573.4435,-306.2761C519.2547,-293.7973 396.7834,-265.5941 329.641,-250.1323"/>
<polygon fill="#ffff00" stroke="#ffff00" points="330.2854,-246.6891 319.755,-247.8557 328.7145,-253.5106 330.2854,-246.6891"/>
</g>
<!-- A3 -->
<g id="node7" class="node">
<title>A3</title>
<polygon fill="none" stroke="#000000" points="570.1104,-221.5 570.1104,-257.5 630.8311,-257.5 630.8311,-221.5 570.1104,-221.5"/>
<text text-anchor="middle" x="600.4707" y="-235.3" font-family="Times,serif" font-size="14.00" fill="#000000">user.f90</text>
</g>
<!-- A0&#45;&gt;A3 -->
<g id="edge3" class="edge">
<title>A0&#45;&gt;A3</title>
<path fill="none" stroke="#ffff00" d="M600.4707,-294.4551C600.4707,-286.3828 600.4707,-276.6764 600.4707,-267.6817"/>
<polygon fill="#ffff00" stroke="#ffff00" points="603.9708,-267.5903 600.4707,-257.5904 596.9708,-267.5904 603.9708,-267.5903"/>
</g>
<!-- A4 -->
<g id="node12" class="node">
<title>A4</title>
<polygon fill="none" stroke="#000000" points="784.0552,-221.5 784.0552,-257.5 840.8862,-257.5 840.8862,-221.5 784.0552,-221.5"/>
<text text-anchor="middle" x="812.4707" y="-235.3" font-family="Times,serif" font-size="14.00" fill="#000000">init.f90</text>
</g>
<!-- A0&#45;&gt;A4 -->
<g id="edge4" class="edge">
<title>A0&#45;&gt;A4</title>
<path fill="none" stroke="#ffff00" d="M627.752,-303.106C665.0234,-290.272 732.0414,-267.195 774.2868,-252.6482"/>
<polygon fill="#ffff00" stroke="#ffff00" points="775.6258,-255.8889 783.9414,-249.3238 773.3467,-249.2703 775.6258,-255.8889"/>
</g>
<!-- A5 -->
<g id="node14" class="node">
<title>A5</title>
<polygon fill="none" stroke="#000000" points="955.2827,-221.5 955.2827,-257.5 1013.6587,-257.5 1013.6587,-221.5 955.2827,-221.5"/>
<text text-anchor="middle" x="984.4707" y="-235.3" font-family="Times,serif" font-size="14.00" fill="#000000">aux.f90</text>
</g>
<!-- A0&#45;&gt;A5 -->
<g id="edge5" class="edge">
<title>A0&#45;&gt;A5</title>
<path fill="none" stroke="#ffff00" d="M627.4728,-307.3668C694.2138,-294.6791 867.1752,-261.7984 945.2314,-246.9596"/>
<polygon fill="#ffff00" stroke="#ffff00" points="945.9825,-250.3795 955.1529,-245.0734 944.6752,-243.5027 945.9825,-250.3795"/>
</g>
<!-- a1bm -->
<g id="node3" class="node">
<title>a1bm</title>
<polygon fill="none" stroke="#00ff00" points="0,-50.5 0,-156.5 80.9414,-156.5 80.9414,-50.5 0,-50.5"/>
<text text-anchor="middle" x="40.4707" y="-141.3" font-family="Times,serif" font-size="14.00" fill="#000000">Module:</text>
<text text-anchor="middle" x="40.4707" y="-127.3" font-family="Times,serif" font-size="14.00" fill="#000000"> stack</text>
<text text-anchor="middle" x="40.4707" y="-113.3" font-family="Times,serif" font-size="14.00" fill="#000000"> EBL_fit</text>
<text text-anchor="middle" x="40.4707" y="-99.3" font-family="Times,serif" font-size="14.00" fill="#000000"> xsec </text>
<text text-anchor="middle" x="40.4707" y="-85.3" font-family="Times,serif" font-size="14.00" fill="#000000"> constants</text>
<text text-anchor="middle" x="40.4707" y="-71.3" font-family="Times,serif" font-size="14.00" fill="#000000"> cosmology</text>
<text text-anchor="middle" x="40.4707" y="-57.3" font-family="Times,serif" font-size="14.00" fill="#000000"> internal</text>
</g>
<!-- A1&#45;&gt;a1bm -->
<g id="edge6" class="edge">
<title>A1&#45;&gt;a1bm</title>
<path fill="none" stroke="#000000" d="M105.5113,-221.4403C97.5627,-207.0267 85.9349,-185.9417 74.7013,-165.5715"/>
<polygon fill="#000000" stroke="#000000" points="77.6473,-163.6658 69.7534,-156.5992 71.5176,-167.0461 77.6473,-163.6658"/>
</g>
<!-- a2bf -->
<g id="node5" class="node">
<title>a2bf</title>
<polygon fill="none" stroke="#ff0000" points="99.2241,-22.5 99.2241,-184.5 209.7173,-184.5 209.7173,-22.5 99.2241,-22.5"/>
<text text-anchor="middle" x="154.4707" y="-169.3" font-family="Times,serif" font-size="14.00" fill="#000000">Function:</text>
<text text-anchor="middle" x="154.4707" y="-155.3" font-family="Times,serif" font-size="14.00" fill="#000000"> w_EBL_density</text>
<text text-anchor="middle" x="154.4707" y="-141.3" font-family="Times,serif" font-size="14.00" fill="#000000"> int_length</text>
<text text-anchor="middle" x="154.4707" y="-127.3" font-family="Times,serif" font-size="14.00" fill="#000000"> sigpair</text>
<text text-anchor="middle" x="154.4707" y="-113.3" font-family="Times,serif" font-size="14.00" fill="#000000"> zpair</text>
<text text-anchor="middle" x="154.4707" y="-99.3" font-family="Times,serif" font-size="14.00" fill="#000000"> sigics</text>
<text text-anchor="middle" x="154.4707" y="-85.3" font-family="Times,serif" font-size="14.00" fill="#000000"> zics </text>
<text text-anchor="middle" x="154.4707" y="-71.3" font-family="Times,serif" font-size="14.00" fill="#000000">zsigics</text>
<text text-anchor="middle" x="154.4707" y="-57.3" font-family="Times,serif" font-size="14.00" fill="#000000"> rate_bb</text>
<text text-anchor="middle" x="154.4707" y="-43.3" font-family="Times,serif" font-size="14.00" fill="#000000"> eloss</text>
<text text-anchor="middle" x="154.4707" y="-29.3" font-family="Times,serif" font-size="14.00" fill="#000000"> themf</text>
</g>
<!-- A2&#45;&gt;a2bf -->
<g id="edge7" class="edge">
<title>A2&#45;&gt;a2bf</title>
<path fill="none" stroke="#000000" d="M259.5804,-221.4359C246.8217,-211.3144 231.1745,-198.1177 218.4707,-185 217.931,-184.4427 217.3912,-183.881 216.8517,-183.3153"/>
<polygon fill="#000000" stroke="#000000" points="219.2201,-180.7214 209.8599,-175.7577 214.0818,-185.4751 219.2201,-180.7214"/>
</g>
<!-- a2bs -->
<g id="node6" class="node">
<title>a2bs</title>
<polygon fill="none" stroke="#0000ff" points="227.8516,-43.5 227.8516,-163.5 339.0898,-163.5 339.0898,-43.5 227.8516,-43.5"/>
<text text-anchor="middle" x="283.4707" y="-148.3" font-family="Times,serif" font-size="14.00" fill="#000000">Subroutine:</text>
<text text-anchor="middle" x="283.4707" y="-134.3" font-family="Times,serif" font-size="14.00" fill="#000000"> cascade</text>
<text text-anchor="middle" x="283.4707" y="-120.3" font-family="Times,serif" font-size="14.00" fill="#000000"> angle_delay</text>
<text text-anchor="middle" x="283.4707" y="-106.3" font-family="Times,serif" font-size="14.00" fill="#000000"> interaction</text>
<text text-anchor="middle" x="283.4707" y="-92.3" font-family="Times,serif" font-size="14.00" fill="#000000"> store_particle</text>
<text text-anchor="middle" x="283.4707" y="-78.3" font-family="Times,serif" font-size="14.00" fill="#000000"> get_particle</text>
<text text-anchor="middle" x="283.4707" y="-64.3" font-family="Times,serif" font-size="14.00" fill="#000000"> sample_photon</text>
<text text-anchor="middle" x="283.4707" y="-50.3" font-family="Times,serif" font-size="14.00" fill="#000000"> sample_electron</text>
</g>
<!-- A2&#45;&gt;a2bs -->
<g id="edge8" class="edge">
<title>A2&#45;&gt;a2bs</title>
<path fill="none" stroke="#000000" d="M283.4707,-221.4403C283.4707,-208.9977 283.4707,-191.5833 283.4707,-173.9491"/>
<polygon fill="#000000" stroke="#000000" points="286.9708,-173.5768 283.4707,-163.5769 279.9708,-173.5769 286.9708,-173.5768"/>
</g>
<!-- head -->
<g id="node8" class="node">
<title>head</title>
<polygon fill="none" stroke="#ffff00" points="356.6895,-85.5 356.6895,-121.5 484.252,-121.5 484.252,-85.5 356.6895,-85.5"/>
<text text-anchor="middle" x="420.4707" y="-99.3" font-family="Times,serif" font-size="14.00" fill="#000000">program Elmagcasc</text>
</g>
<!-- A3&#45;&gt;head -->
<g id="edge9" class="edge">
<title>A3&#45;&gt;head</title>
<path fill="none" stroke="#000000" d="M569.6717,-227.441C547.2895,-217.8443 516.9343,-203.0501 493.4707,-185 472.8984,-169.1741 453.49,-147.0237 439.864,-129.809"/>
<polygon fill="#000000" stroke="#000000" points="442.552,-127.5637 433.6595,-121.8039 437.0192,-131.852 442.552,-127.5637"/>
</g>
<!-- a3bm -->
<g id="node9" class="node">
<title>a3bm</title>
<polygon fill="none" stroke="#00ff00" points="502.293,-78.5 502.293,-128.5 602.6484,-128.5 602.6484,-78.5 502.293,-78.5"/>
<text text-anchor="middle" x="552.4707" y="-113.3" font-family="Times,serif" font-size="14.00" fill="#000000">Module:</text>
<text text-anchor="middle" x="552.4707" y="-99.3" font-family="Times,serif" font-size="14.00" fill="#000000"> user_result</text>
<text text-anchor="middle" x="552.4707" y="-85.3" font-family="Times,serif" font-size="14.00" fill="#000000"> user_variables</text>
</g>
<!-- A3&#45;&gt;a3bm -->
<g id="edge10" class="edge">
<title>A3&#45;&gt;a3bm</title>
<path fill="none" stroke="#000000" d="M594.0967,-221.4403C586.6344,-200.2971 574.1054,-164.7982 564.7385,-138.2587"/>
<polygon fill="#000000" stroke="#000000" points="567.9493,-136.8395 561.3205,-128.5745 561.3483,-139.1693 567.9493,-136.8395"/>
</g>
<!-- a3bf -->
<g id="node10" class="node">
<title>a3bf</title>
<polygon fill="none" stroke="#ff0000" points="621.124,-78.5 621.124,-128.5 695.8174,-128.5 695.8174,-78.5 621.124,-78.5"/>
<text text-anchor="middle" x="658.4707" y="-113.3" font-family="Times,serif" font-size="14.00" fill="#000000">Function:</text>
<text text-anchor="middle" x="658.4707" y="-99.3" font-family="Times,serif" font-size="14.00" fill="#000000"> bemf</text>
<text text-anchor="middle" x="658.4707" y="-85.3" font-family="Times,serif" font-size="14.00" fill="#000000"> thereg_en</text>
</g>
<!-- A3&#45;&gt;a3bf -->
<g id="edge11" class="edge">
<title>A3&#45;&gt;a3bf</title>
<path fill="none" stroke="#000000" d="M608.1727,-221.4403C617.2293,-200.204 632.4623,-164.4852 643.7965,-137.9085"/>
<polygon fill="#000000" stroke="#000000" points="647.0737,-139.1459 647.7772,-128.5745 640.6348,-136.3999 647.0737,-139.1459"/>
</g>
<!-- a3bs -->
<g id="node11" class="node">
<title>a3bs</title>
<polygon fill="none" stroke="#0000ff" points="714.1533,-57.5 714.1533,-149.5 818.7881,-149.5 818.7881,-57.5 714.1533,-57.5"/>
<text text-anchor="middle" x="766.4707" y="-134.3" font-family="Times,serif" font-size="14.00" fill="#000000">Subroutine:</text>
<text text-anchor="middle" x="766.4707" y="-120.3" font-family="Times,serif" font-size="14.00" fill="#000000"> user_main</text>
<text text-anchor="middle" x="766.4707" y="-106.3" font-family="Times,serif" font-size="14.00" fill="#000000"> user_output</text>
<text text-anchor="middle" x="766.4707" y="-92.3" font-family="Times,serif" font-size="14.00" fill="#000000"> register</text>
<text text-anchor="middle" x="766.4707" y="-78.3" font-family="Times,serif" font-size="14.00" fill="#000000"> initial_particle </text>
<text text-anchor="middle" x="766.4707" y="-64.3" font-family="Times,serif" font-size="14.00" fill="#000000">plots</text>
</g>
<!-- A3&#45;&gt;a3bs -->
<g id="edge12" class="edge">
<title>A3&#45;&gt;a3bs</title>
<path fill="none" stroke="#000000" d="M631.2853,-227.6176C653.1969,-218.1999 682.5167,-203.5508 704.4707,-185 713.8066,-177.1113 722.5996,-167.5818 730.468,-157.8617"/>
<polygon fill="#000000" stroke="#000000" points="733.4573,-159.7203 736.8517,-149.6839 727.9394,-155.413 733.4573,-159.7203"/>
</g>
<!-- a4b -->
<g id="node13" class="node">
<title>a4b</title>
<ellipse fill="none" stroke="#000000" cx="900.4707" cy="-103.5" rx="63.559" ry="25.4118"/>
<text text-anchor="middle" x="900.4707" y="-106.3" font-family="Times,serif" font-size="14.00" fill="#000000">Read from</text>
<text text-anchor="middle" x="900.4707" y="-92.3" font-family="Times,serif" font-size="14.00" fill="#000000"> Table Folder</text>
</g>
<!-- A4&#45;&gt;a4b -->
<g id="edge13" class="edge">
<title>A4&#45;&gt;a4b</title>
<path fill="none" stroke="#000000" d="M824.1564,-221.4403C838.0181,-200.0177 861.4159,-163.8574 878.6575,-137.2112"/>
<polygon fill="#000000" stroke="#000000" points="881.752,-138.8716 884.246,-128.5745 875.875,-135.0688 881.752,-138.8716"/>
</g>
<!-- a5b -->
<g id="node15" class="node">
<title>a5b</title>
<ellipse fill="none" stroke="#000000" cx="1032.4707" cy="-103.5" rx="50.763" ry="35.2113"/>
<text text-anchor="middle" x="1032.4707" y="-113.3" font-family="Times,serif" font-size="14.00" fill="#000000">Contains</text>
<text text-anchor="middle" x="1032.4707" y="-99.3" font-family="Times,serif" font-size="14.00" fill="#000000"> auxiliary</text>
<text text-anchor="middle" x="1032.4707" y="-85.3" font-family="Times,serif" font-size="14.00" fill="#000000"> functions</text>
</g>
<!-- A5&#45;&gt;a5b -->
<g id="edge14" class="edge">
<title>A5&#45;&gt;a5b</title>
<path fill="none" stroke="#000000" d="M990.8447,-221.4403C997.4637,-202.6866 1008.0688,-172.6387 1016.9178,-147.5665"/>
<polygon fill="#000000" stroke="#000000" points="1020.3077,-148.4779 1020.3355,-137.8831 1013.7068,-146.1481 1020.3077,-148.4779"/>
</g>
</g>
</svg>
