<?xml version="1.0" encoding="UTF-8" standalone="no"?>
<!DOCTYPE svg PUBLIC "-//W3C//DTD SVG 1.1//EN"
 "http://www.w3.org/Graphics/SVG/1.1/DTD/svg11.dtd">
<!-- Generated by graphviz version 2.40.1 (20161225.0304)
 -->
<!-- Title: %3 Pages: 1 -->
<svg width="1674pt" height="286pt"
 viewBox="0.00 0.00 1673.53 286.00" xmlns="http://www.w3.org/2000/svg" xmlns:xlink="http://www.w3.org/1999/xlink">
<g id="graph0" class="graph" transform="scale(1 1) rotate(0) translate(4 282)">
<title>%3</title>
<polygon fill="#ffffff" stroke="transparent" points="-4,4 -4,-282 1669.5293,-282 1669.5293,4 -4,4"/>
<text text-anchor="middle" x="832.7646" y="-6.8" font-family="Times,serif" font-size="14.00" fill="#000000">Frameworks(Library)| Buzzword example</text>
<!-- S -->
<g id="node1" class="node">
<title>S</title>
<polygon fill="none" stroke="#000000" points="845.5654,-241.5 845.5654,-277.5 926.1035,-277.5 926.1035,-241.5 845.5654,-241.5"/>
<text text-anchor="middle" x="885.8345" y="-255.3" font-family="Times,serif" font-size="14.00" fill="#000000">Framework</text>
</g>
<!-- S0 -->
<g id="node2" class="node">
<title>S0</title>
<polygon fill="none" stroke="#000000" points="437.8965,-168.5 437.8965,-204.5 625.7725,-204.5 625.7725,-168.5 437.8965,-168.5"/>
<text text-anchor="middle" x="531.8345" y="-189.3" font-family="Times,serif" font-size="14.00" fill="#000000">Back&#45;end Framework</text>
<text text-anchor="middle" x="531.8345" y="-175.3" font-family="Times,serif" font-size="14.00" fill="#000000"> (Web application Framework)</text>
</g>
<!-- S&#45;&gt;S0 -->
<g id="edge1" class="edge">
<title>S&#45;&gt;S0</title>
<path fill="none" stroke="#000000" d="M845.2262,-251.126C792.9305,-240.3418 700.3296,-221.2462 629.3016,-206.5992"/>
<polygon fill="#000000" stroke="#000000" points="629.9297,-203.1551 619.4289,-204.5633 628.5159,-210.0109 629.9297,-203.1551"/>
</g>
<!-- S1 -->
<g id="node3" class="node">
<title>S1</title>
<polygon fill="none" stroke="#000000" points="1214.6431,-168.5 1214.6431,-204.5 1357.0259,-204.5 1357.0259,-168.5 1214.6431,-168.5"/>
<text text-anchor="middle" x="1285.8345" y="-189.3" font-family="Times,serif" font-size="14.00" fill="#000000">Front&#45;end Framework</text>
<text text-anchor="middle" x="1285.8345" y="-175.3" font-family="Times,serif" font-size="14.00" fill="#000000"> (or CSS Frameworks)</text>
</g>
<!-- S&#45;&gt;S1 -->
<g id="edge2" class="edge">
<title>S&#45;&gt;S1</title>
<path fill="none" stroke="#000000" d="M926.3899,-252.0986C991.377,-240.2385 1120.0995,-216.7466 1204.555,-201.3335"/>
<polygon fill="#000000" stroke="#000000" points="1205.4187,-204.7338 1214.6278,-199.4952 1204.1619,-197.8475 1205.4187,-204.7338"/>
</g>
<!-- y1 -->
<g id="node4" class="node">
<title>y1</title>
<polygon fill="none" stroke="#000000" points="0,-95.5 0,-131.5 55.6689,-131.5 55.6689,-95.5 0,-95.5"/>
<text text-anchor="middle" x="27.8345" y="-109.3" font-family="Times,serif" font-size="14.00" fill="#000000">Silicon</text>
</g>
<!-- S0&#45;&gt;y1 -->
<g id="edge19" class="edge">
<title>S0&#45;&gt;y1</title>
<path fill="none" stroke="#000000" d="M437.7332,-179.3933C326.6125,-170.3543 147.5502,-153.5957 65.4554,-131.4843"/>
<polygon fill="#000000" stroke="#000000" points="66.2784,-128.0794 55.7012,-128.6898 64.3505,-134.8086 66.2784,-128.0794"/>
</g>
<!-- y2 -->
<g id="node5" class="node">
<title>y2</title>
<polygon fill="none" stroke="#000000" points="73.4517,-95.5 73.4517,-131.5 132.2173,-131.5 132.2173,-95.5 73.4517,-95.5"/>
<text text-anchor="middle" x="102.8345" y="-109.3" font-family="Times,serif" font-size="14.00" fill="#000000">cmscpp</text>
</g>
<!-- S0&#45;&gt;y2 -->
<g id="edge20" class="edge">
<title>S0&#45;&gt;y2</title>
<path fill="none" stroke="#000000" d="M437.5426,-181.3649C357.4765,-175.1127 240.2395,-161.4602 141.8345,-132 141.7358,-131.9704 141.637,-131.9407 141.5381,-131.9107"/>
<polygon fill="#000000" stroke="#000000" points="142.8699,-128.6699 132.2753,-128.6027 140.5156,-135.2621 142.8699,-128.6699"/>
</g>
<!-- y3 -->
<g id="node6" class="node">
<title>y3</title>
<polygon fill="none" stroke="#000000" points="150.4756,-95.5 150.4756,-131.5 279.1934,-131.5 279.1934,-95.5 150.4756,-95.5"/>
<text text-anchor="middle" x="214.8345" y="-109.3" font-family="Times,serif" font-size="14.00" fill="#000000">tree frog framework</text>
</g>
<!-- S0&#45;&gt;y3 -->
<g id="edge21" class="edge">
<title>S0&#45;&gt;y3</title>
<path fill="none" stroke="#000000" d="M448.4125,-168.4822C403.7014,-158.6794 347.44,-146.1127 289.064,-132.2662"/>
<polygon fill="#000000" stroke="#000000" points="289.8352,-128.8521 279.2966,-129.9421 288.2147,-135.6619 289.8352,-128.8521"/>
</g>
<!-- a1 -->
<g id="node8" class="node">
<title>a1</title>
<polygon fill="none" stroke="#000000" points="297.2275,-95.5 297.2275,-131.5 354.4414,-131.5 354.4414,-95.5 297.2275,-95.5"/>
<text text-anchor="middle" x="325.8345" y="-109.3" font-family="Times,serif" font-size="14.00" fill="#000000">Django</text>
</g>
<!-- S0&#45;&gt;a1 -->
<g id="edge3" class="edge">
<title>S0&#45;&gt;a1</title>
<path fill="none" stroke="#00ff00" d="M469.26,-168.4738C439.6386,-159.4118 403.733,-147.667 364.0368,-131.8378"/>
<polygon fill="#00ff00" stroke="#00ff00" points="365.2757,-128.5635 354.6926,-128.0638 362.6541,-135.0541 365.2757,-128.5635"/>
</g>
<!-- a2 -->
<g id="node9" class="node">
<title>a2</title>
<polygon fill="none" stroke="#000000" points="372.8345,-95.5 372.8345,-131.5 426.8345,-131.5 426.8345,-95.5 372.8345,-95.5"/>
<text text-anchor="middle" x="399.5034" y="-109.3" font-family="Times,serif" font-size="14.00" fill="#000000">Flask</text>
</g>
<!-- S0&#45;&gt;a2 -->
<g id="edge4" class="edge">
<title>S0&#45;&gt;a2</title>
<path fill="none" stroke="#00ff00" d="M499.2053,-168.4551C480.092,-157.8848 455.9118,-144.5124 436.1895,-133.6054"/>
<polygon fill="#00ff00" stroke="#00ff00" points="437.6373,-130.4066 427.1925,-128.6298 434.2496,-136.5322 437.6373,-130.4066"/>
</g>
<!-- a3 -->
<g id="node10" class="node">
<title>a3</title>
<polygon fill="none" stroke="#000000" points="444.646,-95.5 444.646,-131.5 527.0229,-131.5 527.0229,-95.5 444.646,-95.5"/>
<text text-anchor="middle" x="485.8345" y="-109.3" font-family="Times,serif" font-size="14.00" fill="#000000">TurboGears</text>
</g>
<!-- S0&#45;&gt;a3 -->
<g id="edge5" class="edge">
<title>S0&#45;&gt;a3</title>
<path fill="none" stroke="#00ff00" d="M520.4637,-168.4551C515.1006,-159.9441 508.5928,-149.6165 502.6729,-140.2219"/>
<polygon fill="#00ff00" stroke="#00ff00" points="505.5263,-138.1848 497.2339,-131.5904 499.604,-141.9167 505.5263,-138.1848"/>
</g>
<!-- a4 -->
<g id="node11" class="node">
<title>a4</title>
<polygon fill="none" stroke="#000000" points="545.1138,-95.5 545.1138,-131.5 608.5552,-131.5 608.5552,-95.5 545.1138,-95.5"/>
<text text-anchor="middle" x="576.8345" y="-109.3" font-family="Times,serif" font-size="14.00" fill="#000000">Pyramid</text>
</g>
<!-- S0&#45;&gt;a4 -->
<g id="edge6" class="edge">
<title>S0&#45;&gt;a4</title>
<path fill="none" stroke="#00ff00" d="M542.9581,-168.4551C548.2045,-159.9441 554.5709,-149.6165 560.3621,-140.2219"/>
<polygon fill="#00ff00" stroke="#00ff00" points="563.4148,-141.9396 565.6829,-131.5904 557.4559,-138.2663 563.4148,-141.9396"/>
</g>
<!-- b1 -->
<g id="node13" class="node">
<title>b1</title>
<polygon fill="none" stroke="#000000" points="626.7759,-95.5 626.7759,-131.5 722.8931,-131.5 722.8931,-95.5 626.7759,-95.5"/>
<text text-anchor="middle" x="674.8345" y="-109.3" font-family="Times,serif" font-size="14.00" fill="#000000">Ruby on Rails</text>
</g>
<!-- S0&#45;&gt;b1 -->
<g id="edge11" class="edge">
<title>S0&#45;&gt;b1</title>
<path fill="none" stroke="#000000" d="M567.1828,-168.4551C586.2612,-158.7157 609.9997,-146.5975 630.3268,-136.2207"/>
<polygon fill="#000000" stroke="#000000" points="632.082,-139.2544 639.3972,-131.5904 628.8992,-133.0198 632.082,-139.2544"/>
</g>
<!-- b2 -->
<g id="node14" class="node">
<title>b2</title>
<polygon fill="none" stroke="#000000" points="741.0068,-95.5 741.0068,-131.5 796.6621,-131.5 796.6621,-95.5 741.0068,-95.5"/>
<text text-anchor="middle" x="768.8345" y="-109.3" font-family="Times,serif" font-size="14.00" fill="#000000">Sinatra</text>
</g>
<!-- S0&#45;&gt;b2 -->
<g id="edge12" class="edge">
<title>S0&#45;&gt;b2</title>
<path fill="none" stroke="#000000" d="M612.3143,-168.4306C646.8167,-159.7718 687.5185,-148.3426 731.4001,-131.8302"/>
<polygon fill="#000000" stroke="#000000" points="732.7227,-135.0717 740.8112,-128.2286 730.2207,-128.5341 732.7227,-135.0717"/>
</g>
<!-- b3 -->
<g id="node15" class="node">
<title>b3</title>
<polygon fill="none" stroke="#000000" points="814.6758,-95.5 814.6758,-131.5 874.9932,-131.5 874.9932,-95.5 814.6758,-95.5"/>
<text text-anchor="middle" x="844.8345" y="-109.3" font-family="Times,serif" font-size="14.00" fill="#000000">Hanami</text>
</g>
<!-- S0&#45;&gt;b3 -->
<g id="edge13" class="edge">
<title>S0&#45;&gt;b3</title>
<path fill="none" stroke="#000000" d="M625.8943,-173.6745C676.8511,-165.3465 740.7618,-152.668 804.6363,-132.0182"/>
<polygon fill="#000000" stroke="#000000" points="806.0707,-135.2306 814.4712,-128.7745 803.8781,-128.5829 806.0707,-135.2306"/>
</g>
<!-- b4 -->
<g id="node16" class="node">
<title>b4</title>
<polygon fill="none" stroke="#000000" points="892.8345,-95.5 892.8345,-131.5 946.8345,-131.5 946.8345,-95.5 892.8345,-95.5"/>
<text text-anchor="middle" x="919.6104" y="-109.3" font-family="Times,serif" font-size="14.00" fill="#000000">Cuba</text>
</g>
<!-- S0&#45;&gt;b4 -->
<g id="edge14" class="edge">
<title>S0&#45;&gt;b4</title>
<path fill="none" stroke="#000000" d="M626.0009,-180.169C695.5443,-173.6018 792.1272,-160.5003 883.0759,-131.6998"/>
<polygon fill="#000000" stroke="#000000" points="884.2723,-134.9914 892.7091,-128.5827 882.1173,-128.3313 884.2723,-134.9914"/>
</g>
<!-- c1 -->
<g id="node18" class="node">
<title>c1</title>
<polygon fill="none" stroke="#000000" points="964.6138,-95.5 964.6138,-131.5 1035.0552,-131.5 1035.0552,-95.5 964.6138,-95.5"/>
<text text-anchor="middle" x="999.8345" y="-109.3" font-family="Times,serif" font-size="14.00" fill="#000000">Bootstrap</text>
</g>
<!-- S1&#45;&gt;c1 -->
<g id="edge30" class="edge">
<title>S1&#45;&gt;c1</title>
<path fill="none" stroke="#000000" d="M1214.533,-173.8813C1168.2367,-164.8951 1106.6006,-151.4438 1044.706,-132.028"/>
<polygon fill="#000000" stroke="#000000" points="1045.7646,-128.692 1035.1739,-128.9906 1043.6392,-135.3616 1045.7646,-128.692"/>
</g>
<!-- c2 -->
<g id="node19" class="node">
<title>c2</title>
<polygon fill="none" stroke="#000000" points="1052.9448,-95.5 1052.9448,-131.5 1132.7241,-131.5 1132.7241,-95.5 1052.9448,-95.5"/>
<text text-anchor="middle" x="1092.8345" y="-109.3" font-family="Times,serif" font-size="14.00" fill="#000000">Foundation</text>
</g>
<!-- S1&#45;&gt;c2 -->
<g id="edge31" class="edge">
<title>S1&#45;&gt;c2</title>
<path fill="none" stroke="#000000" d="M1238.1266,-168.4551C1209.0426,-157.4544 1171.9344,-143.4186 1142.5003,-132.2855"/>
<polygon fill="#000000" stroke="#000000" points="1143.4267,-128.894 1132.8352,-128.6298 1140.9502,-135.4413 1143.4267,-128.894"/>
</g>
<!-- c3 -->
<g id="node20" class="node">
<title>c3</title>
<polygon fill="none" stroke="#000000" points="1150.6499,-95.5 1150.6499,-131.5 1237.019,-131.5 1237.019,-95.5 1150.6499,-95.5"/>
<text text-anchor="middle" x="1193.8345" y="-109.3" font-family="Times,serif" font-size="14.00" fill="#000000">Semantic UI</text>
</g>
<!-- S1&#45;&gt;c3 -->
<g id="edge32" class="edge">
<title>S1&#45;&gt;c3</title>
<path fill="none" stroke="#000000" d="M1263.0929,-168.4551C1251.4822,-159.2422 1237.1887,-147.9006 1224.6079,-137.918"/>
<polygon fill="#000000" stroke="#000000" points="1226.6424,-135.0644 1216.6333,-131.5904 1222.2913,-140.5479 1226.6424,-135.0644"/>
</g>
<!-- d1 -->
<g id="node21" class="node">
<title>d1</title>
<polygon fill="none" stroke="#000000" points="1255.481,-95.5 1255.481,-131.5 1316.188,-131.5 1316.188,-95.5 1255.481,-95.5"/>
<text text-anchor="middle" x="1285.8345" y="-109.3" font-family="Times,serif" font-size="14.00" fill="#000000">React.js</text>
</g>
<!-- S1&#45;&gt;d1 -->
<g id="edge25" class="edge">
<title>S1&#45;&gt;d1</title>
<path fill="none" stroke="#000000" d="M1285.8345,-168.4551C1285.8345,-160.3828 1285.8345,-150.6764 1285.8345,-141.6817"/>
<polygon fill="#000000" stroke="#000000" points="1289.3346,-141.5903 1285.8345,-131.5904 1282.3346,-141.5904 1289.3346,-141.5903"/>
</g>
<!-- d2 -->
<g id="node22" class="node">
<title>d2</title>
<polygon fill="none" stroke="#000000" points="1333.8604,-95.5 1333.8604,-131.5 1407.8086,-131.5 1407.8086,-95.5 1333.8604,-95.5"/>
<text text-anchor="middle" x="1370.8345" y="-109.3" font-family="Times,serif" font-size="14.00" fill="#000000">Angular.js</text>
</g>
<!-- S1&#45;&gt;d2 -->
<g id="edge26" class="edge">
<title>S1&#45;&gt;d2</title>
<path fill="none" stroke="#000000" d="M1306.8457,-168.4551C1317.4708,-159.3299 1330.5276,-148.1165 1342.07,-138.2036"/>
<polygon fill="#000000" stroke="#000000" points="1344.4644,-140.7609 1349.7704,-131.5904 1339.9037,-135.4505 1344.4644,-140.7609"/>
</g>
<!-- d3 -->
<g id="node23" class="node">
<title>d3</title>
<polygon fill="none" stroke="#000000" points="1425.8345,-95.5 1425.8345,-131.5 1479.8345,-131.5 1479.8345,-95.5 1425.8345,-95.5"/>
<text text-anchor="middle" x="1452.4985" y="-109.3" font-family="Times,serif" font-size="14.00" fill="#000000">Vue.js</text>
</g>
<!-- S1&#45;&gt;d3 -->
<g id="edge27" class="edge">
<title>S1&#45;&gt;d3</title>
<path fill="none" stroke="#000000" d="M1331.6957,-168.4738C1354.8408,-159.1364 1383.4721,-147.2237 1416.4173,-132.0445"/>
<polygon fill="#000000" stroke="#000000" points="1418.2278,-135.0627 1425.8229,-127.676 1415.2791,-128.7141 1418.2278,-135.0627"/>
</g>
<!-- d4 -->
<g id="node24" class="node">
<title>d4</title>
<polygon fill="none" stroke="#000000" points="1497.4258,-95.5 1497.4258,-131.5 1582.2432,-131.5 1582.2432,-95.5 1497.4258,-95.5"/>
<text text-anchor="middle" x="1539.8345" y="-109.3" font-family="Times,serif" font-size="14.00" fill="#000000">Backbone.js</text>
</g>
<!-- S1&#45;&gt;d4 -->
<g id="edge28" class="edge">
<title>S1&#45;&gt;d4</title>
<path fill="none" stroke="#000000" d="M1357.1953,-168.9365C1393.86,-159.5384 1439.3915,-147.2939 1487.662,-132.2625"/>
<polygon fill="#000000" stroke="#000000" points="1488.8593,-135.5551 1497.3508,-129.2191 1486.7614,-128.8768 1488.8593,-135.5551"/>
</g>
<!-- d5 -->
<g id="node25" class="node">
<title>d5</title>
<polygon fill="none" stroke="#000000" points="1600.1396,-95.5 1600.1396,-131.5 1665.5293,-131.5 1665.5293,-95.5 1600.1396,-95.5"/>
<text text-anchor="middle" x="1632.8345" y="-109.3" font-family="Times,serif" font-size="14.00" fill="#000000">Ember.js</text>
</g>
<!-- S1&#45;&gt;d5 -->
<g id="edge29" class="edge">
<title>S1&#45;&gt;d5</title>
<path fill="none" stroke="#000000" d="M1357.2241,-178.6272C1417.4448,-170.8809 1505.7758,-156.9238 1590.3424,-131.761"/>
<polygon fill="#000000" stroke="#000000" points="1591.5474,-135.0531 1600.1012,-128.8015 1589.5158,-128.3543 1591.5474,-135.0531"/>
</g>
<!-- Y -->
<g id="node7" class="node">
<title>Y</title>
<polygon fill="none" stroke="#000000" points="75.8345,-22.5 75.8345,-58.5 129.8345,-58.5 129.8345,-22.5 75.8345,-22.5"/>
<text text-anchor="middle" x="102.3989" y="-36.3" font-family="Times,serif" font-size="14.00" fill="#000000">C++</text>
</g>
<!-- y1&#45;&gt;Y -->
<g id="edge22" class="edge">
<title>y1&#45;&gt;Y</title>
<path fill="none" stroke="#000000" d="M46.3738,-95.4551C55.5686,-86.5054 66.8273,-75.547 76.865,-65.7769"/>
<polygon fill="#000000" stroke="#000000" points="79.5237,-68.0734 84.2485,-58.5904 74.6413,-63.0572 79.5237,-68.0734"/>
</g>
<!-- y2&#45;&gt;Y -->
<g id="edge23" class="edge">
<title>y2&#45;&gt;Y</title>
<path fill="none" stroke="#000000" d="M102.8345,-95.4551C102.8345,-87.3828 102.8345,-77.6764 102.8345,-68.6817"/>
<polygon fill="#000000" stroke="#000000" points="106.3346,-68.5903 102.8345,-58.5904 99.3346,-68.5904 106.3346,-68.5903"/>
</g>
<!-- y3&#45;&gt;Y -->
<g id="edge24" class="edge">
<title>y3&#45;&gt;Y</title>
<path fill="none" stroke="#000000" d="M187.1491,-95.4551C172.5011,-85.9077 154.3457,-74.0743 138.6382,-63.8363"/>
<polygon fill="#000000" stroke="#000000" points="140.4902,-60.8657 130.2014,-58.3374 136.6679,-66.73 140.4902,-60.8657"/>
</g>
<!-- A -->
<g id="node12" class="node">
<title>A</title>
<polygon fill="none" stroke="#000000" points="414.9966,-22.5 414.9966,-58.5 470.6724,-58.5 470.6724,-22.5 414.9966,-22.5"/>
<text text-anchor="middle" x="442.8345" y="-36.3" font-family="Times,serif" font-size="14.00" fill="#000000">Python</text>
</g>
<!-- a1&#45;&gt;A -->
<g id="edge7" class="edge">
<title>a1&#45;&gt;A</title>
<path fill="none" stroke="#00ff00" d="M354.4559,-95.6422C369.982,-85.955 389.3463,-73.873 405.9884,-63.4894"/>
<polygon fill="#00ff00" stroke="#00ff00" points="408.2809,-66.1845 414.9123,-57.9215 404.5755,-60.2456 408.2809,-66.1845"/>
</g>
<!-- a2&#45;&gt;A -->
<g id="edge8" class="edge">
<title>a2&#45;&gt;A</title>
<path fill="none" stroke="#00ff00" d="M410.4637,-95.4551C415.477,-86.9441 421.5604,-76.6165 427.0942,-67.2219"/>
<polygon fill="#00ff00" stroke="#00ff00" points="430.1188,-68.9831 432.1785,-58.5904 424.0874,-65.4303 430.1188,-68.9831"/>
</g>
<!-- a3&#45;&gt;A -->
<g id="edge9" class="edge">
<title>a3&#45;&gt;A</title>
<path fill="none" stroke="#00ff00" d="M475.2053,-95.4551C470.192,-86.9441 464.1086,-76.6165 458.5748,-67.2219"/>
<polygon fill="#00ff00" stroke="#00ff00" points="461.5816,-65.4303 453.4904,-58.5904 455.5501,-68.9831 461.5816,-65.4303"/>
</g>
<!-- a4&#45;&gt;A -->
<g id="edge10" class="edge">
<title>a4&#45;&gt;A</title>
<path fill="none" stroke="#00ff00" d="M545.0783,-96.2C525.4808,-85.5237 500.2593,-71.7837 479.7702,-60.6217"/>
<polygon fill="#00ff00" stroke="#00ff00" points="481.1824,-57.4054 470.7265,-55.6949 477.8336,-63.5524 481.1824,-57.4054"/>
</g>
<!-- B -->
<g id="node17" class="node">
<title>B</title>
<polygon fill="none" stroke="#000000" points="779.8345,-22.5 779.8345,-58.5 833.8345,-58.5 833.8345,-22.5 779.8345,-22.5"/>
<text text-anchor="middle" x="806.5034" y="-36.3" font-family="Times,serif" font-size="14.00" fill="#000000">Ruby</text>
</g>
<!-- b1&#45;&gt;B -->
<g id="edge15" class="edge">
<title>b1&#45;&gt;B</title>
<path fill="none" stroke="#000000" d="M707.4637,-95.4551C726.577,-84.8848 750.7572,-71.5124 770.4794,-60.6054"/>
<polygon fill="#000000" stroke="#000000" points="772.4194,-63.5322 779.4765,-55.6298 769.0317,-57.4066 772.4194,-63.5322"/>
</g>
<!-- b2&#45;&gt;B -->
<g id="edge16" class="edge">
<title>b2&#45;&gt;B</title>
<path fill="none" stroke="#000000" d="M778.2277,-95.4551C782.6124,-87.0319 787.9234,-76.8292 792.773,-67.5128"/>
<polygon fill="#000000" stroke="#000000" points="795.9047,-69.0766 797.4176,-58.5904 789.6956,-65.8445 795.9047,-69.0766"/>
</g>
<!-- b3&#45;&gt;B -->
<g id="edge17" class="edge">
<title>b3&#45;&gt;B</title>
<path fill="none" stroke="#000000" d="M835.4412,-95.4551C831.0565,-87.0319 825.7456,-76.8292 820.8959,-67.5128"/>
<polygon fill="#000000" stroke="#000000" points="823.9733,-65.8445 816.2514,-58.5904 817.7642,-69.0766 823.9733,-65.8445"/>
</g>
<!-- b4&#45;&gt;B -->
<g id="edge18" class="edge">
<title>b4&#45;&gt;B</title>
<path fill="none" stroke="#000000" d="M892.7682,-96.0147C877.7834,-86.3343 858.9664,-74.1781 842.7634,-63.7107"/>
<polygon fill="#000000" stroke="#000000" points="844.3705,-60.5821 834.0716,-58.0957 840.572,-66.4619 844.3705,-60.5821"/>
</g>
</g>
</svg>
